<?xml version="1.0" encoding="UTF-8"?>
<svg xmlns="http://www.w3.org/2000/svg" xmlns:xlink="http://www.w3.org/1999/xlink" width="17px" height="17px" viewBox="0 0 17 17" version="1.1">
<g id="surface3">
<path d="M 18.792969 19.808594 L 12.585938 13.601562 C 12.113281 14.007812 11.5625 14.328125 10.933594 14.554688 C 10.300781 14.785156 9.632812 14.898438 8.925781 14.898438 C 7.226562 14.898438 5.785156 14.308594 4.605469 13.128906 C 3.421875 11.945312 2.832031 10.523438 2.832031 8.855469 C 2.832031 7.1875 3.421875 5.761719 4.605469 4.582031 C 5.785156 3.398438 7.21875 2.808594 8.902344 2.808594 C 10.570312 2.808594 11.992188 3.398438 13.164062 4.582031 C 14.335938 5.761719 14.921875 7.1875 14.921875 8.855469 C 14.921875 9.53125 14.8125 10.183594 14.589844 10.8125 C 14.371094 11.445312 14.039062 12.035156 13.601562 12.585938 L 19.832031 18.769531 Z M 8.902344 13.480469 C 10.175781 13.480469 11.261719 13.03125 12.160156 12.125 C 13.058594 11.21875 13.503906 10.128906 13.503906 8.855469 C 13.503906 7.578125 13.058594 6.488281 12.160156 5.585938 C 11.261719 4.679688 10.175781 4.226562 8.902344 4.226562 C 7.609375 4.226562 6.511719 4.679688 5.609375 5.585938 C 4.703125 6.488281 4.25 7.578125 4.25 8.855469 C 4.25 10.128906 4.703125 11.21875 5.609375 12.125 C 6.511719 13.03125 7.609375 13.480469 8.902344 13.480469 Z M 8.902344 13.480469 "/>
</g>
</svg>
